<svg id="Layer_1" data-name="Layer 1" xmlns="http://www.w3.org/2000/svg" viewBox="0 0 433.64 585.08"><defs><style>.cls-1{fill:none;stroke:#000;stroke-miterlimit:10;stroke-width:20px;}</style></defs><path d="M26.06,396.62c9.9-.25,19.81-.36,29.71-.8,7.76-.34,13.58-4.35,18.23-10.42Q206.92,211.76,339.83,38.11a6.36,6.36,0,0,1,5.88-2.93c5.61.19,11.24.06,17.18.06V218.31h-12V97.77c-2.74,3.52-4.68,6-6.58,8.47q-43.09,56.56-86.17,113.14-58.65,77.1-117.22,154.26c-2.95,3.89-5.92,7.77-8.75,11.74-3.53,5-2.59,8,3.3,9.25a84.32,84.32,0,0,0,15.81,1.91c16.15.24,32.3.08,48.81.08v8.91h-174Z" transform="translate(-15.19 -23.46)"/><path d="M265.36,597.79c-7-1.62-14.19-2.78-21-4.95-28.48-9-50-27.48-67.74-50.94-1.33-1.76-2.6-3.57-4.42-6.07-2.68,3.73-5.67,6.88-7.48,10.6-6.72,13.8-13.3,27.69-19.39,41.78-1.91,4.43-3.87,6.91-8.91,6a33,33,0,0,0-5.67,0c-.11-1.78-.29-3.21-.29-4.65q0-81,0-162c0-1.78-1.19-4.61,2.27-4.71,2.91-.08,5.87-1,7.21,3.52,6.89,23.34,13.35,46.86,21.51,69.76,8.66,24.34,21.68,46.38,40.92,64.18,18.71,17.31,40.88,26.54,66.23,28.84,16.22,1.47,32,.35,46.92-6.38,23.52-10.6,35.9-29.3,38.92-54.7,3.37-28.36-8.31-49.73-30.33-66.37-18.13-13.69-38.85-22.5-59.6-31.16-18.23-7.61-36.59-14.91-54.94-22.22-2.89-1.15-3.93-2.68-3.91-5.88.17-19.26.09-38.52.09-58.41,4.4,2.09,8.48,3.74,12.3,5.88,25,14,52.19,22.76,78.95,32.51,27.71,10.08,50.33,26.68,66.68,51.41,15,22.65,19.65,47.44,15.69,74.19-3.79,25.66-14.16,47.81-33.7,65.19-15.38,13.68-33.53,21.3-53.9,23.8a11.66,11.66,0,0,0-2.4.85Z" transform="translate(-15.19 -23.46)"/><path d="M362.91,360.83H351.18c-5.3-62.32-34.66-107.69-92.57-134.14.9-2.69,2.61-4.11,6.79-2.76,18.86,6.08,34.52,17.27,49.17,30.15,3.89,3.42,7.69,6.95,11.81,10.68,11.84-11.34,20.38-24.65,24.59-40.68h11.94Z" transform="translate(-15.19 -23.46)"/><path d="M362.76,366.36c7.77,17.89,22.23,26.31,40.76,28.41,11.29,1.28,22.67,1.75,34.48,2.62v7.94c-1.43.07-2.86.19-4.3.19-29.17,0-58.34.06-87.51-.11-2.18,0-4.62-1.27-6.48-2.59-5.13-3.66-10-7.67-15-11.53,11.21-4.52,19-13.5,26-23.43a3.9,3.9,0,0,1,2.63-1.43C356.42,366.25,359.53,366.36,362.76,366.36Z" transform="translate(-15.19 -23.46)"/><rect class="cls-1" x="10" y="10" width="413.64" height="565.08" rx="23.87"/></svg>