<svg id="Layer_5" data-name="Layer 5" xmlns="http://www.w3.org/2000/svg" xmlns:xlink="http://www.w3.org/1999/xlink" viewBox="0 0 1920 398"><defs><style>.cls-1{filter:url(#AI_Shadow_2);}.cls-2{fill:#e6e6e6;}.cls-3{fill:none;stroke:#fff;stroke-miterlimit:10;stroke-width:2px;}</style><filter id="AI_Shadow_2" x="-15%" y="-15%" width="140%" height="130%" name="AI_Shadow_2"><feGaussianBlur result="blur" stdDeviation="6" in="SourceAlpha"/><feOffset result="offsetBlurredAlpha" dx="8" dy="8" in="blur"/><feMerge><feMergeNode in="offsetBlurredAlpha"/><feMergeNode in="SourceGraphic"/></feMerge></filter></defs><g class="cls-1"><path class="cls-2" d="M1920,228.27s-84.3-83.72-302.65,0c-48.17,18.48-169.81,103.33-302.75,96.79-52.3-2.58-106.34-19.29-158.35-59.75-62.79-48.84-114.1-208-393.18-73.64-86.9,41.83-193.67,61.16-299.51,67.94C229.51,274.61,0,228.27,0,228.27V-434H1920Z"/></g><path class="cls-3" d="M0,181.31s43.72-37.58,214.48,83,424.83-8,496.17-76S917.73,80.39,976.89,113.45s45.24,198.37,149.65,186.19,99.19-121.81,219.26-64.38,252.32,109.62,341.06,53.94S1761.61,90.83,1920,153.47"/></svg>